<?xml version="1.0" standalone="no"?>
<!DOCTYPE svg PUBLIC "-//W3C//DTD SVG 20010904//EN"
 "http://www.w3.org/TR/2001/REC-SVG-20010904/DTD/svg10.dtd">
<svg version="1.0" xmlns="http://www.w3.org/2000/svg"
 width="512.000000pt" height="512.000000pt" viewBox="0 0 512.000000 512.000000"
 preserveAspectRatio="xMidYMid meet">
<metadata>
Created by potrace 1.11, written by Peter Selinger 2001-2013
</metadata>
<g transform="translate(0.000000,512.000000) scale(0.100000,-0.100000)"
fill="#000000" stroke="none">
<path d="M2395 5094 c-644 -51 -1205 -310 -1646 -761 -334 -341 -547 -726
-657 -1188 -51 -213 -66 -344 -66 -585 0 -241 15 -372 66 -585 110 -462 323
-847 657 -1188 401 -410 899 -661 1476 -743 165 -24 505 -24 670 0 577 82
1075 333 1476 743 333 340 547 727 657 1188 51 213 66 344 66 585 0 241 -15
372 -66 585 -110 462 -323 847 -657 1188 -396 405 -886 655 -1446 738 -125 18
-423 31 -530 23z m521 -58 c546 -82 1019 -320 1409 -711 388 -388 631 -868
712 -1410 24 -168 24 -542 0 -710 -81 -542 -324 -1022 -712 -1410 -388 -388
-868 -631 -1410 -712 -168 -24 -542 -24 -710 0 -542 81 -1022 324 -1410 712
-388 388 -631 868 -712 1410 -24 168 -24 542 0 710 81 542 324 1022 712 1410
426 427 928 661 1560 729 83 9 464 -3 561 -18z"/>
<path d="M2478 3381 c-227 -246 -417 -449 -421 -450 -5 -1 -85 91 -179 204
-93 113 -173 205 -178 203 -10 -4 -1450 -1566 -1450 -1573 0 -3 318 233 708
526 389 293 712 535 717 539 6 5 192 -102 415 -237 223 -134 410 -247 417
-251 7 -4 -77 -102 -229 -267 -133 -143 -316 -341 -407 -440 -91 -98 -159
-175 -151 -170 8 5 434 323 945 708 512 385 953 716 980 737 l50 37 588 -354
c324 -195 590 -353 591 -351 2 1 -246 305 -551 673 -304 369 -564 683 -576
698 l-22 29 -178 -191 -178 -191 -235 285 c-129 157 -237 285 -239 285 -2 0
-190 -202 -417 -449z m590 -229 l133 -79 -307 -334 c-168 -184 -320 -347 -336
-364 l-29 -30 -30 35 c-17 19 -93 113 -170 207 l-140 173 342 255 341 255 32
-19 c17 -11 91 -55 164 -99z"/>
</g>
</svg>
