<?xml version="1.0" encoding="utf-8"?>
<!-- Generator: Adobe Illustrator 16.0.0, SVG Export Plug-In . SVG Version: 6.00 Build 0)  -->
<!DOCTYPE svg PUBLIC "-//W3C//DTD SVG 1.1//EN" "http://www.w3.org/Graphics/SVG/1.1/DTD/svg11.dtd">
<svg version="1.1" id="Layer_1" xmlns="http://www.w3.org/2000/svg" xmlns:xlink="http://www.w3.org/1999/xlink" x="0px" y="0px"
	 width="48px" height="48px" viewBox="0 0 48 48" enable-background="new 0 0 48 48" xml:space="preserve">
<path fill="#939393" d="M24,4C12.96,4,4,12.96,4,24s8.96,20,20,20s20-8.96,20-20S35.04,4,24,4z M24,10c3.32,0,6,2.68,6,6
	s-2.68,6-6,6c-3.32,0-6-2.68-6-6S20.68,10,24,10z M24,38.4c-5,0-9.42-2.561-12-6.44c0.06-3.979,8-6.16,12-6.16
	c3.98,0,11.939,2.181,12,6.16C33.42,35.84,29,38.4,24,38.4z"/>
<path fill="none" d="M0,0h48v48H0V0z"/>
</svg>
