<?xml version="1.0" encoding="utf-8"?>
<!-- Generator: Adobe Illustrator 16.0.0, SVG Export Plug-In . SVG Version: 6.00 Build 0)  -->
<!DOCTYPE svg PUBLIC "-//W3C//DTD SVG 1.1//EN" "http://www.w3.org/Graphics/SVG/1.1/DTD/svg11.dtd">
<svg version="1.1" id="Layer_1" xmlns="http://www.w3.org/2000/svg" xmlns:xlink="http://www.w3.org/1999/xlink" x="0px" y="0px"
	 width="220.632px" height="76.737px" viewBox="66.535 -51.07 220.632 76.737"
	 enable-background="new 66.535 -51.07 220.632 76.737" xml:space="preserve">
<g>
	<g>
		<g>
			<path fill="#4E4E4E" d="M66.535,18.255c0.039-0.15,0.076-0.336,0.111-0.561c0.035-0.222,0.066-0.496,0.092-0.826
				c0.026-0.328,0.045-0.722,0.058-1.177c0.013-0.455,0.02-0.985,0.02-1.596V7.104c0-0.608-0.007-1.14-0.02-1.595
				c-0.013-0.455-0.032-0.849-0.058-1.182c-0.026-0.333-0.057-0.61-0.092-0.833c-0.036-0.222-0.072-0.408-0.111-0.559V2.894h2.32
				v0.043c-0.039,0.15-0.076,0.337-0.111,0.559c-0.036,0.222-0.064,0.5-0.087,0.833c-0.022,0.333-0.042,0.727-0.058,1.182
				c-0.016,0.455-0.024,0.987-0.024,1.595V9.5l5.646-5.124c0.632-0.573,0.948-1.067,0.948-1.482h2.717v0.043
				c-0.38,0.101-0.766,0.292-1.156,0.575c-0.39,0.283-0.804,0.628-1.242,1.037L70.499,9.19l6.004,7.326
				c0.251,0.286,0.466,0.524,0.643,0.714s0.333,0.348,0.469,0.473c0.135,0.127,0.259,0.229,0.372,0.313
				c0.113,0.083,0.23,0.164,0.353,0.241V18.3h-2.833c-0.026-0.064-0.069-0.146-0.131-0.247c-0.061-0.101-0.132-0.204-0.212-0.312
				c-0.08-0.109-0.168-0.22-0.261-0.334c-0.093-0.113-0.182-0.223-0.266-0.322l-6.062-7.392v4.404c0,0.608,0.008,1.142,0.024,1.596
				c0.016,0.455,0.035,0.849,0.058,1.177c0.023,0.33,0.052,0.604,0.087,0.828c0.035,0.223,0.072,0.406,0.111,0.559V18.3h-2.32
				V18.255z"/>
			<path fill="#4E4E4E" d="M78.465,12.486c0-0.845,0.144-1.629,0.43-2.353c0.287-0.723,0.678-1.352,1.175-1.885
				c0.496-0.533,1.083-0.951,1.76-1.251c0.677-0.3,1.402-0.451,2.175-0.451c0.76,0,1.478,0.142,2.151,0.424
				c0.673,0.283,1.26,0.686,1.76,1.208c0.499,0.523,0.894,1.157,1.184,1.901c0.29,0.745,0.435,1.579,0.435,2.503
				c0,0.767-0.123,1.505-0.367,2.218c-0.245,0.713-0.603,1.344-1.073,1.891c-0.471,0.549-1.051,0.984-1.74,1.313
				c-0.69,0.324-1.479,0.488-2.369,0.488c-0.754,0-1.466-0.141-2.137-0.42s-1.257-0.678-1.759-1.197
				c-0.503-0.52-0.899-1.148-1.189-1.891C78.61,14.242,78.465,13.41,78.465,12.486z M84.228,17.729c0.49,0,0.941-0.106,1.354-0.321
				c0.413-0.216,0.769-0.523,1.068-0.925c0.3-0.399,0.532-0.89,0.696-1.467c0.164-0.576,0.246-1.226,0.246-1.949
				c0-0.823-0.079-1.586-0.237-2.288c-0.158-0.702-0.396-1.309-0.715-1.821c-0.319-0.512-0.717-0.913-1.194-1.203
				S84.411,7.32,83.773,7.32c-0.49,0-0.941,0.104-1.354,0.312s-0.769,0.509-1.068,0.902c-0.299,0.394-0.533,0.877-0.701,1.45
				c-0.167,0.573-0.251,1.225-0.251,1.955c0,0.816,0.083,1.578,0.247,2.282c0.165,0.706,0.406,1.317,0.725,1.838
				c0.319,0.521,0.717,0.928,1.194,1.226C83.042,17.582,83.596,17.729,84.228,17.729z"/>
			<path fill="#4E4E4E" d="M90.831,18.255c0.083-0.102,0.169-0.283,0.256-0.549s0.156-0.552,0.208-0.858
				c0.078-0.501,0.163-1.072,0.256-1.714c0.093-0.641,0.187-1.301,0.28-1.981c0.093-0.68,0.185-1.359,0.275-2.036
				c0.09-0.677,0.174-1.305,0.251-1.885c0.078-0.58,0.142-1.088,0.193-1.525c0.052-0.437,0.087-0.755,0.106-0.956h1.15l4.612,9.174
				l4.728-9.174h0.938l1.16,8.97c0.058,0.407,0.114,0.756,0.169,1.042c0.055,0.287,0.108,0.527,0.16,0.725
				c0.051,0.197,0.103,0.357,0.155,0.479c0.051,0.123,0.097,0.221,0.135,0.291V18.3h-2.378v-0.043
				c0.02-0.057,0.043-0.154,0.072-0.291c0.029-0.135,0.044-0.297,0.044-0.482c0-0.122-0.008-0.297-0.024-0.525
				c-0.016-0.229-0.041-0.455-0.072-0.678l-0.832-6.585l-4.399,8.583l-0.687-0.107l-4.322-8.54
				c-0.161,1.203-0.303,2.317-0.425,3.341c-0.052,0.437-0.103,0.874-0.155,1.312c-0.051,0.438-0.097,0.846-0.135,1.229
				c-0.039,0.384-0.071,0.723-0.097,1.016c-0.026,0.296-0.039,0.513-0.039,0.655c0,0.18,0.003,0.335,0.01,0.468
				c0.006,0.134,0.016,0.249,0.029,0.351c0.013,0.115,0.026,0.215,0.039,0.301h-1.663v-0.047h0.002V18.255z"/>
			<path fill="#4E4E4E" d="M109.886,13.873c0,0.646,0.006,1.207,0.021,1.688c0.013,0.479,0.03,0.895,0.053,1.238
				c0.022,0.35,0.05,0.642,0.082,0.877c0.032,0.236,0.071,0.431,0.116,0.58v0.043h-2.233v-0.043c0.045-0.149,0.085-0.344,0.121-0.58
				c0.036-0.235,0.064-0.527,0.087-0.877c0.022-0.346,0.04-0.76,0.053-1.238s0.02-1.042,0.02-1.688v-2.708
				c0-0.645-0.006-1.205-0.02-1.681c-0.013-0.476-0.03-0.888-0.053-1.235c-0.023-0.347-0.052-0.639-0.087-0.875
				c-0.035-0.236-0.076-0.43-0.121-0.58V6.75c0.419,0,0.852,0,1.3,0c0.448,0,0.889-0.001,1.324-0.005
				c0.435-0.003,0.851-0.009,1.248-0.016c0.396-0.007,0.754-0.016,1.073-0.027c0.319-0.011,0.591-0.021,0.817-0.032
				c0.225-0.011,0.383-0.027,0.474-0.048l-0.396,1.16c-0.167-0.05-0.361-0.097-0.58-0.14c-0.187-0.036-0.42-0.07-0.701-0.102
				c-0.281-0.032-0.598-0.048-0.953-0.048c-0.129,0-0.285,0.005-0.469,0.016c-0.184,0.011-0.363,0.023-0.537,0.038
				c-0.207,0.015-0.419,0.029-0.638,0.043v3.91c0.522-0.007,0.999-0.023,1.431-0.048c0.432-0.025,0.805-0.052,1.121-0.081
				c0.368-0.028,0.696-0.064,0.986-0.107l-0.213,1.289c-0.38-0.05-0.764-0.097-1.15-0.14c-0.329-0.036-0.688-0.068-1.078-0.097
				c-0.39-0.028-0.755-0.043-1.097-0.043v1.601H109.886z"/>
			<path fill="#4E4E4E" d="M115.175,12.486c0-0.845,0.144-1.629,0.43-2.353c0.287-0.723,0.678-1.352,1.175-1.885
				c0.496-0.533,1.083-0.951,1.76-1.251c0.677-0.3,1.402-0.451,2.175-0.451c0.76,0,1.478,0.142,2.151,0.424
				c0.673,0.283,1.26,0.686,1.76,1.208c0.499,0.523,0.894,1.157,1.184,1.901c0.29,0.745,0.435,1.579,0.435,2.503
				c0,0.767-0.123,1.505-0.367,2.218c-0.245,0.713-0.603,1.344-1.073,1.891c-0.471,0.549-1.051,0.984-1.74,1.313
				c-0.69,0.324-1.479,0.488-2.369,0.488c-0.754,0-1.466-0.141-2.137-0.42s-1.257-0.678-1.759-1.197
				c-0.503-0.52-0.899-1.148-1.189-1.891C115.32,14.242,115.175,13.41,115.175,12.486z M120.937,17.729
				c0.49,0,0.941-0.106,1.354-0.321c0.413-0.216,0.769-0.523,1.068-0.925c0.3-0.399,0.532-0.89,0.696-1.467
				c0.164-0.576,0.246-1.226,0.246-1.949c0-0.823-0.079-1.586-0.237-2.288c-0.158-0.702-0.396-1.309-0.715-1.821
				c-0.319-0.512-0.717-0.913-1.194-1.203c-0.477-0.29-1.035-0.435-1.673-0.435c-0.49,0-0.941,0.104-1.354,0.312
				s-0.769,0.509-1.068,0.902c-0.299,0.394-0.533,0.877-0.701,1.45c-0.167,0.573-0.251,1.225-0.251,1.955
				c0,0.816,0.083,1.578,0.247,2.282c0.165,0.706,0.406,1.317,0.725,1.838s0.717,0.928,1.194,1.226
				C119.751,17.582,120.305,17.729,120.937,17.729z"/>
			<path fill="#4E4E4E" d="M131.659,13.389c-0.129,0.021-0.256,0.034-0.382,0.038c-0.125,0.004-0.253,0.005-0.382,0.005
				c-0.103,0-0.216-0.003-0.338-0.011c-0.123-0.008-0.248-0.02-0.377-0.032v0.526c0,0.638,0.006,1.192,0.02,1.67
				c0.013,0.478,0.03,0.887,0.053,1.229c0.022,0.346,0.05,0.632,0.082,0.864c0.032,0.231,0.071,0.425,0.116,0.573v0.043h-2.233
				v-0.043c0.045-0.148,0.085-0.344,0.121-0.58c0.036-0.234,0.064-0.526,0.087-0.875c0.022-0.348,0.04-0.76,0.053-1.239
				s0.02-1.042,0.02-1.688v-2.707c0-0.645-0.006-1.205-0.02-1.681c-0.013-0.476-0.03-0.888-0.053-1.235
				c-0.023-0.347-0.052-0.639-0.087-0.875c-0.035-0.236-0.076-0.43-0.121-0.58V6.75c0.103,0.007,0.212,0.015,0.329,0.021
				c0.097,0.007,0.205,0.013,0.324,0.016c0.119,0.004,0.24,0.005,0.363,0.005c0.206,0,0.512-0.021,0.918-0.064
				c0.406-0.043,0.883-0.064,1.431-0.064c0.554,0,1.059,0.075,1.513,0.226c0.454,0.15,0.844,0.365,1.17,0.645
				c0.325,0.279,0.577,0.62,0.754,1.021c0.177,0.401,0.266,0.849,0.266,1.343c0,0.387-0.048,0.74-0.145,1.058
				c-0.097,0.319-0.232,0.605-0.406,0.859c-0.174,0.254-0.38,0.478-0.619,0.671c-0.239,0.193-0.503,0.362-0.793,0.505l2.021,3.169
				c0.174,0.258,0.35,0.504,0.527,0.739c0.177,0.236,0.346,0.448,0.507,0.636c0.161,0.187,0.313,0.342,0.455,0.467
				s0.261,0.209,0.357,0.252v0.043h-2.533c0-0.063-0.041-0.178-0.121-0.338c-0.081-0.16-0.174-0.328-0.28-0.504
				c-0.106-0.178-0.213-0.348-0.319-0.513s-0.185-0.284-0.237-0.364L131.659,13.389z M130.18,12.69
				c0.129,0.021,0.259,0.038,0.392,0.048c0.132,0.011,0.259,0.016,0.382,0.016c0.806,0,1.417-0.24,1.832-0.72
				c0.416-0.479,0.624-1.199,0.624-2.159c0-0.788-0.166-1.411-0.498-1.869s-0.82-0.688-1.465-0.688
				c-0.207,0-0.388,0.009-0.546,0.027c-0.158,0.018-0.292,0.038-0.401,0.059c-0.123,0.029-0.229,0.058-0.319,0.086L130.18,12.69
				L130.18,12.69z"/>
			<path fill="#4E4E4E" d="M140.467,7.545c-0.587,0-1.12,0.029-1.6,0.086c-0.48,0.058-0.895,0.118-1.242,0.183
				c-0.4,0.079-0.761,0.165-1.083,0.258l0.193-1.386c0.097,0.015,0.254,0.025,0.474,0.032c0.219,0.007,0.45,0.013,0.691,0.016
				c0.242,0.004,0.47,0.007,0.687,0.011c0.216,0.004,0.366,0.005,0.449,0.005h4.573c0.077,0,0.221-0.001,0.43-0.005
				c0.209-0.003,0.434-0.007,0.672-0.011c0.238-0.003,0.467-0.009,0.688-0.016c0.219-0.007,0.377-0.018,0.475-0.032l0.192,1.386
				c-0.31-0.093-0.664-0.179-1.063-0.258c-0.342-0.064-0.752-0.125-1.232-0.183c-0.48-0.057-1.02-0.086-1.619-0.086v6.328
				c0,0.646,0.006,1.207,0.02,1.688c0.014,0.479,0.031,0.895,0.054,1.238c0.022,0.35,0.05,0.642,0.083,0.877
				c0.033,0.236,0.07,0.431,0.115,0.58v0.043h-2.232v-0.043c0.045-0.149,0.083-0.344,0.116-0.58
				c0.033-0.235,0.061-0.527,0.087-0.877c0.026-0.346,0.045-0.76,0.058-1.238c0.013-0.479,0.02-1.042,0.02-1.688V7.545H140.467z"/>
			<path fill="#4E4E4E" d="M146.585,12.486c0-0.845,0.145-1.629,0.431-2.353c0.287-0.723,0.678-1.352,1.175-1.885
				c0.496-0.533,1.083-0.951,1.76-1.251c0.678-0.3,1.402-0.451,2.176-0.451c0.761,0,1.479,0.142,2.15,0.424
				c0.674,0.283,1.262,0.686,1.76,1.208c0.5,0.523,0.896,1.157,1.187,1.901c0.289,0.745,0.437,1.579,0.437,2.503
				c0,0.767-0.123,1.505-0.367,2.218c-0.246,0.713-0.604,1.344-1.074,1.891c-0.471,0.549-1.051,0.984-1.739,1.313
				c-0.688,0.324-1.479,0.488-2.369,0.488c-0.754,0-1.466-0.141-2.137-0.42s-1.257-0.678-1.759-1.197
				c-0.504-0.52-0.899-1.148-1.189-1.891C146.731,14.242,146.585,13.41,146.585,12.486z M152.349,17.729
				c0.49,0,0.941-0.106,1.354-0.321c0.412-0.216,0.771-0.523,1.068-0.925c0.3-0.399,0.531-0.89,0.695-1.467
				c0.164-0.576,0.246-1.226,0.246-1.949c0-0.823-0.078-1.586-0.236-2.288c-0.157-0.702-0.396-1.309-0.715-1.821
				c-0.319-0.512-0.717-0.913-1.193-1.203c-0.479-0.29-1.035-0.435-1.673-0.435c-0.49,0-0.94,0.104-1.354,0.312
				c-0.412,0.208-0.769,0.509-1.066,0.902c-0.301,0.394-0.533,0.877-0.701,1.45c-0.167,0.573-0.251,1.225-0.251,1.955
				c0,0.816,0.083,1.578,0.247,2.282c0.165,0.706,0.404,1.317,0.727,1.838c0.317,0.521,0.717,0.928,1.192,1.226
				C151.164,17.582,151.716,17.729,152.349,17.729z"/>
			<path fill="#4E4E4E" d="M166.638,7.781l2.697,7.616l2.271-6.316c0.06-0.136,0.116-0.288,0.174-0.457
				c0.06-0.168,0.111-0.34,0.159-0.516c0.049-0.175,0.088-0.344,0.117-0.505c0.027-0.161,0.043-0.306,0.043-0.435
				c0-0.093-0.008-0.173-0.021-0.242c-0.013-0.068-0.023-0.113-0.039-0.134V6.75h1.811v0.043c-0.129,0.144-0.281,0.378-0.455,0.704
				s-0.38,0.804-0.618,1.434l-3.604,9.518h-0.531l-2.611-7.101l-2.658,7.101h-0.551l-3.326-8.97
				c-0.121-0.329-0.252-0.646-0.391-0.951c-0.139-0.304-0.271-0.576-0.396-0.816c-0.127-0.24-0.234-0.44-0.328-0.602
				c-0.094-0.162-0.155-0.267-0.188-0.317V6.75h2.646v0.043c-0.012,0.036-0.021,0.093-0.027,0.172
				c-0.008,0.079-0.01,0.147-0.01,0.204c0,0.229,0.031,0.485,0.097,0.768c0.063,0.283,0.17,0.636,0.317,1.058l2.32,6.445
				l2.728-7.659H166.638z"/>
			<path fill="#4E4E4E" d="M176.876,6.745c0.664-0.003,1.277-0.011,1.848-0.021c0.566-0.011,1.055-0.023,1.465-0.038
				c0.408-0.014,0.678-0.036,0.807-0.064l-0.377,1.16c-0.174-0.05-0.371-0.097-0.59-0.14c-0.193-0.036-0.428-0.07-0.701-0.102
				c-0.271-0.032-0.592-0.048-0.953-0.048c-0.129,0-0.275,0.005-0.441,0.016c-0.168,0.011-0.33,0.023-0.482,0.038
				c-0.182,0.015-0.363,0.029-0.553,0.043v4.243c0.521-0.007,0.992-0.021,1.412-0.043c0.418-0.021,0.773-0.05,1.07-0.086
				c0.35-0.028,0.654-0.068,0.918-0.118l-0.229,1.278c-0.354-0.05-0.713-0.093-1.072-0.129c-0.311-0.036-0.65-0.066-1.023-0.091
				c-0.375-0.025-0.732-0.038-1.074-0.038v4.877c0.6,0,1.15-0.025,1.654-0.081c0.502-0.053,0.939-0.112,1.314-0.177
				c0.438-0.079,0.834-0.168,1.188-0.27l-0.225,1.406c-0.098-0.007-0.254-0.016-0.469-0.025c-0.217-0.01-0.441-0.02-0.678-0.021
				c-0.234-0.003-0.455-0.007-0.662-0.01c-0.207-0.004-0.348-0.006-0.426-0.006h-3.664v-0.043c0.045-0.15,0.086-0.344,0.121-0.58
				s0.064-0.528,0.088-0.877c0.021-0.346,0.039-0.76,0.053-1.239c0.012-0.479,0.02-1.042,0.02-1.687v-2.708
				c0-0.645-0.008-1.205-0.02-1.681c-0.014-0.476-0.031-0.888-0.053-1.235c-0.023-0.347-0.053-0.639-0.088-0.875
				s-0.076-0.43-0.121-0.58V6.75C175.565,6.75,176.212,6.749,176.876,6.745z"/>
			<path fill="#4E4E4E" d="M189.261,18.255c0.039-0.15,0.076-0.336,0.111-0.561c0.035-0.222,0.064-0.496,0.092-0.826
				c0.023-0.328,0.045-0.722,0.059-1.177c0.012-0.455,0.02-0.985,0.02-1.596V7.104c0-0.608-0.008-1.14-0.02-1.595
				c-0.014-0.455-0.033-0.849-0.059-1.182c-0.026-0.333-0.057-0.61-0.092-0.833c-0.035-0.222-0.072-0.408-0.111-0.559V2.894h2.32
				v0.043c-0.039,0.15-0.076,0.337-0.111,0.559c-0.035,0.222-0.064,0.5-0.086,0.833c-0.023,0.333-0.043,0.727-0.059,1.182
				c-0.018,0.455-0.023,0.987-0.023,1.595V9.5l5.645-5.124c0.633-0.573,0.947-1.067,0.947-1.482h2.717v0.043
				c-0.379,0.101-0.766,0.292-1.154,0.575c-0.391,0.283-0.805,0.628-1.242,1.037l-4.986,4.641l6.004,7.326
				c0.25,0.286,0.465,0.524,0.645,0.714c0.176,0.189,0.332,0.348,0.469,0.473c0.135,0.127,0.26,0.229,0.371,0.313
				c0.113,0.083,0.229,0.164,0.354,0.241V18.3h-2.832c-0.027-0.064-0.07-0.146-0.131-0.247c-0.063-0.101-0.133-0.204-0.213-0.312
				c-0.08-0.109-0.168-0.22-0.262-0.334c-0.094-0.113-0.182-0.223-0.266-0.322l-6.063-7.392v4.404c0,0.608,0.008,1.142,0.021,1.596
				c0.016,0.455,0.035,0.849,0.06,1.177c0.021,0.33,0.052,0.604,0.087,0.828c0.033,0.223,0.07,0.406,0.109,0.559V18.3h-2.318
				L189.261,18.255L189.261,18.255z"/>
			<path fill="#4E4E4E" d="M201.192,12.486c0-0.845,0.144-1.629,0.431-2.353c0.287-0.723,0.678-1.352,1.174-1.885
				s1.084-0.951,1.761-1.251c0.678-0.301,1.401-0.451,2.176-0.451c0.761,0,1.478,0.142,2.149,0.424
				c0.675,0.283,1.261,0.686,1.761,1.208c0.5,0.523,0.896,1.157,1.187,1.901c0.289,0.745,0.435,1.579,0.435,2.503
				c0,0.767-0.121,1.505-0.367,2.218c-0.244,0.713-0.603,1.344-1.071,1.891c-0.472,0.549-1.052,0.984-1.74,1.313
				c-0.688,0.324-1.479,0.488-2.369,0.488c-0.754,0-1.467-0.141-2.137-0.42s-1.257-0.678-1.761-1.197
				c-0.502-0.52-0.897-1.148-1.188-1.891C201.337,14.242,201.192,13.41,201.192,12.486z M206.955,17.729
				c0.487,0,0.94-0.106,1.354-0.321c0.413-0.216,0.769-0.523,1.067-0.925c0.299-0.399,0.531-0.89,0.694-1.467
				c0.164-0.576,0.246-1.226,0.246-1.949c0-0.823-0.078-1.586-0.235-2.288c-0.158-0.702-0.396-1.309-0.715-1.821
				c-0.32-0.512-0.718-0.913-1.195-1.203c-0.477-0.29-1.033-0.435-1.672-0.435c-0.49,0-0.94,0.104-1.354,0.312
				c-0.412,0.208-0.77,0.509-1.066,0.902c-0.301,0.394-0.533,0.877-0.701,1.45c-0.168,0.573-0.25,1.225-0.25,1.955
				c0,0.816,0.082,1.578,0.246,2.282c0.164,0.706,0.404,1.317,0.725,1.838c0.318,0.521,0.717,0.928,1.193,1.226
				C205.769,17.58,206.321,17.729,206.955,17.729z"/>
			<path fill="#4E4E4E" d="M218.942,8.995h-0.192c-0.039-0.122-0.103-0.275-0.188-0.462c-0.086-0.186-0.203-0.369-0.349-0.548
				c-0.146-0.179-0.323-0.331-0.537-0.457c-0.211-0.125-0.467-0.188-0.764-0.188c-0.226,0-0.427,0.042-0.604,0.124
				c-0.18,0.083-0.328,0.195-0.449,0.338c-0.123,0.144-0.217,0.313-0.279,0.51c-0.064,0.197-0.098,0.41-0.098,0.639
				c0,0.373,0.104,0.727,0.307,1.063c0.201,0.337,0.455,0.671,0.758,1.004s0.633,0.668,0.984,1.004
				c0.354,0.337,0.686,0.688,0.986,1.053c0.302,0.365,0.557,0.752,0.76,1.16c0.203,0.408,0.307,0.845,0.307,1.312
				c0,0.345-0.059,0.697-0.17,1.063c-0.113,0.365-0.297,0.695-0.549,0.988c-0.25,0.294-0.572,0.534-0.967,0.728
				c-0.395,0.188-0.869,0.282-1.432,0.282c-0.311,0-0.604-0.026-0.885-0.086s-0.539-0.127-0.771-0.21
				c-0.236-0.082-0.445-0.172-0.629-0.27c-0.186-0.098-0.34-0.188-0.459-0.272l0.174-2.028h0.203c0.063,0.25,0.158,0.5,0.283,0.752
				c0.125,0.25,0.279,0.477,0.467,0.682c0.186,0.203,0.396,0.369,0.646,0.494c0.248,0.125,0.532,0.188,0.854,0.188
				c0.228,0,0.438-0.041,0.639-0.123s0.373-0.197,0.519-0.352c0.146-0.149,0.261-0.334,0.345-0.553
				c0.082-0.219,0.125-0.463,0.125-0.736c0-0.32-0.06-0.619-0.175-0.895c-0.116-0.275-0.271-0.541-0.465-0.796
				c-0.193-0.254-0.41-0.5-0.651-0.735c-0.242-0.235-0.492-0.477-0.75-0.721c-0.259-0.243-0.506-0.492-0.748-0.747
				c-0.242-0.254-0.459-0.528-0.651-0.822c-0.193-0.293-0.351-0.607-0.466-0.94c-0.114-0.333-0.174-0.7-0.174-1.101
				c0-0.422,0.08-0.802,0.242-1.139c0.159-0.336,0.372-0.621,0.637-0.854c0.267-0.232,0.567-0.412,0.91-0.537
				c0.342-0.125,0.694-0.188,1.063-0.188c0.271,0,0.521,0.021,0.76,0.064c0.234,0.043,0.447,0.095,0.637,0.156
				c0.191,0.061,0.357,0.122,0.498,0.183c0.143,0.061,0.258,0.109,0.35,0.145L218.942,8.995z M218.854,3.753
				c-0.478,0.179-0.959,0.369-1.449,0.569c-0.213,0.086-0.437,0.179-0.668,0.279c-0.231,0.101-0.467,0.208-0.704,0.322
				c-0.238,0.115-0.479,0.231-0.722,0.349s-0.474,0.242-0.69,0.371l-0.213-0.397c0.42-0.308,0.836-0.645,1.252-1.01
				c0.416-0.365,0.799-0.709,1.146-1.031c0.396-0.372,0.783-0.748,1.158-1.128L218.854,3.753z"/>
			<path fill="#4E4E4E" d="M230.332,15.902l-0.754,1.998c-0.188,0.094-0.397,0.178-0.634,0.253
				c-0.235,0.074-0.479,0.138-0.729,0.188c-0.252,0.05-0.508,0.088-0.771,0.113c-0.26,0.022-0.506,0.037-0.737,0.037
				c-0.813,0-1.563-0.135-2.258-0.398c-0.695-0.264-1.291-0.652-1.794-1.165c-0.504-0.513-0.896-1.14-1.18-1.886
				c-0.283-0.744-0.427-1.598-0.427-2.558c0-0.845,0.147-1.629,0.445-2.353c0.295-0.723,0.705-1.352,1.228-1.885
				c0.522-0.533,1.141-0.951,1.853-1.251c0.713-0.301,1.483-0.451,2.315-0.451c0.188,0,0.385,0.009,0.594,0.027
				c0.209,0.018,0.418,0.045,0.625,0.081c0.205,0.036,0.404,0.077,0.599,0.124c0.192,0.047,0.375,0.095,0.543,0.145l0.726,1.934
				l-0.115,0.075c-0.176-0.236-0.383-0.455-0.625-0.655c-0.241-0.2-0.506-0.371-0.793-0.51c-0.287-0.139-0.588-0.249-0.903-0.328
				c-0.313-0.079-0.638-0.118-0.968-0.118c-0.532,0-1.021,0.104-1.463,0.312s-0.819,0.51-1.133,0.908s-0.556,0.883-0.729,1.456
				c-0.175,0.573-0.263,1.221-0.263,1.944c0,0.816,0.084,1.578,0.252,2.282c0.168,0.706,0.418,1.316,0.755,1.838
				c0.334,0.521,0.754,0.93,1.256,1.227c0.504,0.297,1.09,0.443,1.76,0.443c0.322,0,0.642-0.045,0.953-0.135
				c0.313-0.09,0.608-0.217,0.89-0.383c0.28-0.164,0.536-0.361,0.771-0.596c0.232-0.232,0.432-0.492,0.6-0.779L230.332,15.902z"/>
			<path fill="#4E4E4E" d="M232.255,11.165c0-0.645-0.006-1.205-0.021-1.681c-0.012-0.476-0.027-0.888-0.053-1.235
				c-0.021-0.347-0.053-0.639-0.086-0.875c-0.037-0.236-0.076-0.43-0.121-0.58V6.75h2.24v0.043c-0.045,0.15-0.086,0.344-0.119,0.58
				c-0.035,0.236-0.063,0.528-0.088,0.875c-0.021,0.348-0.039,0.759-0.053,1.235c-0.014,0.477-0.02,1.037-0.02,1.681v2.707
				c0,0.646,0.006,1.207,0.02,1.688c0.014,0.479,0.029,0.896,0.053,1.239c0.021,0.349,0.053,0.641,0.088,0.875
				c0.033,0.236,0.074,0.432,0.119,0.58v0.043h-2.24v-0.043c0.045-0.148,0.084-0.344,0.121-0.58
				c0.033-0.234,0.063-0.526,0.086-0.875c0.023-0.348,0.041-0.76,0.053-1.239c0.016-0.479,0.021-1.042,0.021-1.688V11.165z"/>
			<path fill="#4E4E4E" d="M238.849,6.745c0.664-0.003,1.279-0.011,1.848-0.021c0.566-0.011,1.055-0.023,1.465-0.038
				c0.408-0.014,0.678-0.036,0.809-0.064l-0.379,1.16c-0.174-0.05-0.369-0.097-0.59-0.14c-0.191-0.036-0.428-0.07-0.701-0.102
				c-0.271-0.032-0.592-0.048-0.951-0.048c-0.129,0-0.277,0.005-0.443,0.016c-0.168,0.011-0.328,0.023-0.482,0.038
				c-0.18,0.015-0.363,0.029-0.551,0.043v4.243c0.521-0.007,0.99-0.021,1.412-0.043c0.418-0.021,0.773-0.05,1.07-0.086
				c0.35-0.028,0.652-0.068,0.918-0.118l-0.229,1.278c-0.355-0.05-0.713-0.093-1.074-0.129c-0.309-0.036-0.65-0.066-1.023-0.091
				c-0.375-0.025-0.732-0.038-1.074-0.038v4.877c0.602,0,1.15-0.025,1.654-0.081c0.502-0.053,0.939-0.112,1.314-0.177
				c0.438-0.079,0.834-0.168,1.188-0.27l-0.223,1.406c-0.1-0.007-0.256-0.016-0.471-0.025c-0.217-0.01-0.439-0.02-0.678-0.021
				c-0.234-0.003-0.455-0.007-0.662-0.01c-0.207-0.004-0.348-0.006-0.426-0.006h-3.664v-0.043c0.045-0.15,0.086-0.344,0.121-0.58
				s0.064-0.528,0.088-0.877c0.021-0.346,0.039-0.76,0.053-1.239s0.021-1.042,0.021-1.687v-2.708c0-0.645-0.008-1.205-0.021-1.681
				s-0.029-0.888-0.053-1.235s-0.053-0.639-0.088-0.875s-0.076-0.43-0.121-0.58V6.75C237.539,6.75,238.185,6.749,238.849,6.745z"/>
			<path fill="#4E4E4E" d="M247.144,17.46c0.6,0,1.152-0.026,1.658-0.082c0.506-0.053,0.949-0.111,1.33-0.176
				c0.443-0.08,0.846-0.168,1.207-0.271l-0.223,1.429c-0.092-0.007-0.242-0.016-0.459-0.025s-0.443-0.02-0.684-0.021
				c-0.238-0.003-0.461-0.007-0.666-0.01c-0.207-0.004-0.35-0.006-0.428-0.006h-3.701v-0.043c0.045-0.15,0.086-0.344,0.119-0.58
				c0.035-0.236,0.064-0.528,0.09-0.877c0.021-0.346,0.039-0.76,0.053-1.239s0.021-1.042,0.021-1.687v-2.708
				c0-0.645-0.008-1.205-0.021-1.681c-0.016-0.476-0.029-0.888-0.053-1.235s-0.055-0.639-0.09-0.875
				c-0.033-0.236-0.074-0.43-0.119-0.58V6.75h2.232v0.043c-0.045,0.15-0.084,0.344-0.117,0.58c-0.029,0.236-0.059,0.528-0.082,0.875
				c-0.021,0.348-0.039,0.759-0.053,1.235c-0.014,0.477-0.02,1.037-0.02,1.681v6.296H247.144z"/>
			<path fill="#4E4E4E" d="M253.36,11.165c0-0.645-0.006-1.205-0.021-1.681c-0.014-0.476-0.03-0.888-0.053-1.235
				c-0.023-0.347-0.054-0.639-0.088-0.875c-0.035-0.236-0.076-0.43-0.121-0.58V6.75h2.243v0.043c-0.045,0.15-0.086,0.344-0.12,0.58
				c-0.035,0.236-0.063,0.528-0.089,0.875c-0.021,0.348-0.038,0.759-0.053,1.235c-0.015,0.477-0.021,1.037-0.021,1.681v2.707
				c0,0.646,0.006,1.207,0.021,1.688s0.03,0.896,0.053,1.239c0.022,0.349,0.054,0.641,0.089,0.875
				c0.034,0.236,0.075,0.432,0.12,0.58v0.043h-2.243v-0.043c0.045-0.148,0.086-0.344,0.121-0.58
				c0.034-0.234,0.063-0.526,0.088-0.875c0.021-0.348,0.039-0.76,0.053-1.239c0.015-0.479,0.021-1.042,0.021-1.688V11.165z"/>
			<path fill="#4E4E4E" d="M262.718,8.995h-0.193c-0.037-0.122-0.102-0.275-0.188-0.462c-0.088-0.186-0.203-0.369-0.348-0.548
				c-0.146-0.179-0.324-0.331-0.537-0.457c-0.213-0.125-0.469-0.188-0.766-0.188c-0.229,0-0.428,0.042-0.604,0.124
				c-0.176,0.083-0.326,0.195-0.449,0.338c-0.121,0.144-0.215,0.313-0.279,0.51s-0.098,0.41-0.098,0.639
				c0,0.373,0.102,0.727,0.305,1.063c0.203,0.337,0.457,0.671,0.76,1.004s0.631,0.668,0.986,1.004
				c0.354,0.337,0.682,0.688,0.986,1.053c0.303,0.365,0.555,0.752,0.758,1.16c0.203,0.408,0.305,0.845,0.305,1.312
				c0,0.345-0.057,0.697-0.17,1.063c-0.111,0.365-0.295,0.695-0.545,0.988c-0.252,0.294-0.574,0.534-0.967,0.728
				c-0.396,0.188-0.871,0.282-1.432,0.282c-0.311,0-0.605-0.026-0.887-0.086c-0.277-0.06-0.537-0.127-0.771-0.21
				c-0.234-0.082-0.443-0.172-0.629-0.27s-0.336-0.188-0.459-0.272l0.174-2.028h0.203c0.063,0.25,0.159,0.5,0.284,0.752
				c0.128,0.25,0.28,0.477,0.466,0.682c0.184,0.203,0.398,0.369,0.646,0.494s0.531,0.188,0.854,0.188
				c0.227,0,0.438-0.041,0.637-0.123c0.201-0.082,0.373-0.197,0.52-0.352c0.146-0.148,0.262-0.334,0.346-0.553
				s0.125-0.463,0.125-0.736c0-0.32-0.059-0.619-0.174-0.895s-0.271-0.541-0.465-0.796c-0.191-0.254-0.412-0.5-0.65-0.735
				c-0.242-0.235-0.492-0.477-0.75-0.721c-0.258-0.243-0.508-0.492-0.75-0.747c-0.24-0.254-0.459-0.528-0.652-0.822
				c-0.193-0.293-0.348-0.607-0.463-0.94c-0.117-0.333-0.176-0.7-0.176-1.101c0-0.422,0.082-0.802,0.242-1.139
				c0.16-0.336,0.375-0.621,0.639-0.854c0.264-0.232,0.566-0.412,0.908-0.537s0.695-0.188,1.063-0.188
				c0.271,0,0.521,0.021,0.758,0.064s0.449,0.095,0.641,0.156c0.188,0.061,0.354,0.122,0.498,0.183
				c0.141,0.061,0.258,0.109,0.348,0.145L262.718,8.995z"/>
			<path fill="#4E4E4E" d="M265.658,11.165c0-0.645-0.007-1.205-0.021-1.681c-0.013-0.476-0.029-0.888-0.054-1.235
				c-0.021-0.347-0.051-0.639-0.086-0.875c-0.037-0.236-0.076-0.43-0.121-0.58V6.75h2.231v0.043c-0.045,0.15-0.084,0.344-0.114,0.58
				c-0.033,0.236-0.062,0.528-0.082,0.875c-0.022,0.348-0.041,0.759-0.056,1.235c-0.012,0.477-0.019,1.037-0.019,1.681v0.709
				l4.418-4.028c0.244-0.222,0.431-0.419,0.556-0.591c0.127-0.172,0.188-0.34,0.188-0.505h2.301v0.043
				c-0.291,0.079-0.588,0.222-0.895,0.43c-0.308,0.208-0.632,0.469-0.972,0.784l-3.856,3.513l4.021,4.641
				c0.533,0.623,0.984,1.098,1.355,1.424s0.656,0.551,0.855,0.672v0.043h-2.629c-0.07-0.144-0.223-0.354-0.455-0.635
				c-0.232-0.279-0.537-0.641-0.918-1.084l-3.973-4.599v1.892c0,0.646,0.006,1.207,0.018,1.688c0.014,0.479,0.031,0.895,0.055,1.238
				c0.021,0.35,0.049,0.642,0.082,0.877c0.031,0.236,0.07,0.431,0.115,0.58v0.043h-2.232v-0.043c0.045-0.149,0.084-0.344,0.121-0.58
				c0.035-0.235,0.064-0.527,0.086-0.877c0.023-0.346,0.041-0.76,0.055-1.238s0.021-1.042,0.021-1.688v-2.708H265.658z"/>
			<path fill="#4E4E4E" d="M275.442,12.486c0-0.845,0.144-1.629,0.431-2.353c0.287-0.723,0.678-1.352,1.174-1.885
				s1.084-0.951,1.761-1.251c0.678-0.301,1.401-0.451,2.176-0.451c0.761,0,1.478,0.142,2.149,0.424
				c0.675,0.283,1.261,0.686,1.761,1.208c0.5,0.523,0.896,1.157,1.187,1.901c0.289,0.745,0.435,1.579,0.435,2.503
				c0,0.767-0.121,1.505-0.367,2.218c-0.244,0.713-0.603,1.344-1.071,1.891c-0.472,0.549-1.052,0.984-1.74,1.313
				c-0.688,0.324-1.479,0.488-2.369,0.488c-0.754,0-1.467-0.141-2.137-0.42s-1.256-0.678-1.761-1.197
				c-0.502-0.52-0.897-1.148-1.188-1.891C275.587,14.242,275.442,13.41,275.442,12.486z M281.205,17.729
				c0.487,0,0.94-0.106,1.354-0.321c0.413-0.216,0.769-0.523,1.067-0.925c0.299-0.399,0.531-0.89,0.694-1.467
				c0.164-0.576,0.246-1.226,0.246-1.949c0-0.823-0.077-1.586-0.235-2.288c-0.158-0.702-0.396-1.309-0.715-1.821
				c-0.32-0.512-0.718-0.913-1.195-1.203c-0.477-0.29-1.032-0.435-1.672-0.435c-0.49,0-0.94,0.104-1.354,0.312
				c-0.412,0.208-0.77,0.509-1.066,0.902c-0.301,0.394-0.533,0.877-0.701,1.45c-0.168,0.573-0.25,1.225-0.25,1.955
				c0,0.816,0.082,1.578,0.246,2.282c0.164,0.706,0.404,1.317,0.725,1.838c0.318,0.521,0.717,0.928,1.193,1.226
				C280.019,17.58,280.571,17.729,281.205,17.729z"/>
		</g>
		<g>
			<path fill="#4E4E4E" d="M201.732-46.932l-8.521,8.08L181.878-51.07L161.76-31.657l-8.422-9.013L118.164-6.794l34.709-23.153
				l4.553,2.423l3.547,1.907l11.944,6.386L153.334-0.429l44.646-29.838l2.007-1.32l1.006-0.71l28.542,15.275L201.732-46.932z
				 M173.091-19.323l-8.176-8.934l16.4-10.892l7.93,4.236L173.091-19.323z"/>
		</g>
	</g>
</g>
</svg>
