<?xml version="1.0" encoding="utf-8"?>
<!-- Generator: Adobe Illustrator 16.0.0, SVG Export Plug-In . SVG Version: 6.00 Build 0)  -->
<!DOCTYPE svg PUBLIC "-//W3C//DTD SVG 1.1//EN" "http://www.w3.org/Graphics/SVG/1.1/DTD/svg11.dtd">
<svg version="1.1" id="Layer_1" xmlns="http://www.w3.org/2000/svg" xmlns:xlink="http://www.w3.org/1999/xlink" x="0px" y="0px"
	 width="282.167px" height="25.667px" viewBox="0 0 282.167 25.667" enable-background="new 0 0 282.167 25.667"
	 xml:space="preserve">
<g>
	<rect x="65.331" y="2.998" fill="none" width="268.502" height="28.502"/>
	
		<text transform="matrix(1 0 0 1 65.332 20.4932)" display="none" fill="#262626" font-family="'RobotoCondensed-Regular'" font-size="23.3272">KomfortoweKościelisko</text>
	<g display="none">
		<path display="inline" fill="#57AD57" d="M44.802,3.081l-4.059,3.848l-5.399-5.82l-9.584,9.249l-4.012-4.293L4.991,22.202
			l16.535-11.029l2.169,1.155l1.69,0.909l5.69,3.042l-9.329,8.957l21.269-14.215l0.956-0.629l0.479-0.338l13.597,7.276L44.802,3.081
			z M31.158,16.234l-3.895-4.256l7.813-5.19l3.778,2.018L31.158,16.234z"/>
	</g>
	<g>
		<g>
			<path fill="#262626" d="M61.535,18.255c0.039-0.15,0.076-0.336,0.111-0.559c0.035-0.222,0.066-0.497,0.092-0.827
				c0.026-0.329,0.045-0.721,0.058-1.176c0.013-0.455,0.02-0.986,0.02-1.596V7.104c0-0.608-0.007-1.14-0.02-1.595
				c-0.013-0.455-0.032-0.849-0.058-1.182s-0.057-0.61-0.092-0.833c-0.036-0.222-0.072-0.408-0.111-0.559V2.894h2.32v0.043
				c-0.039,0.15-0.076,0.337-0.111,0.559c-0.036,0.222-0.064,0.5-0.087,0.833c-0.022,0.333-0.042,0.727-0.058,1.182
				c-0.016,0.455-0.024,0.987-0.024,1.595V9.5l5.646-5.124c0.632-0.573,0.948-1.067,0.948-1.482h2.717v0.043
				c-0.38,0.101-0.766,0.292-1.156,0.575c-0.39,0.283-0.804,0.628-1.242,1.037l-4.989,4.641l6.004,7.326
				c0.251,0.286,0.466,0.524,0.643,0.714c0.177,0.19,0.333,0.348,0.469,0.473c0.135,0.126,0.259,0.229,0.372,0.312
				c0.113,0.083,0.23,0.164,0.353,0.242v0.043h-2.833c-0.026-0.064-0.069-0.146-0.131-0.247c-0.061-0.101-0.132-0.204-0.212-0.312
				s-0.168-0.218-0.261-0.333c-0.093-0.114-0.182-0.222-0.266-0.322l-6.062-7.391v4.404c0,0.609,0.008,1.141,0.024,1.596
				c0.016,0.455,0.035,0.847,0.058,1.176c0.023,0.33,0.052,0.605,0.087,0.827c0.035,0.223,0.072,0.408,0.111,0.559v0.043h-2.32
				V18.255z"/>
			<path fill="#262626" d="M73.465,12.486c0-0.845,0.144-1.629,0.43-2.353c0.287-0.723,0.678-1.352,1.175-1.885
				c0.496-0.533,1.083-0.951,1.76-1.251s1.402-0.451,2.175-0.451c0.76,0,1.478,0.142,2.151,0.424c0.673,0.283,1.26,0.686,1.76,1.208
				c0.499,0.523,0.894,1.157,1.184,1.901c0.29,0.745,0.435,1.579,0.435,2.503c0,0.767-0.123,1.506-0.367,2.218
				c-0.245,0.713-0.603,1.344-1.073,1.891c-0.471,0.549-1.051,0.985-1.74,1.312c-0.69,0.325-1.479,0.488-2.369,0.488
				c-0.754,0-1.466-0.14-2.137-0.419s-1.257-0.678-1.759-1.197c-0.503-0.52-0.899-1.15-1.189-1.891
				C73.61,14.242,73.465,13.41,73.465,12.486z M79.228,17.729c0.49,0,0.941-0.107,1.354-0.322s0.769-0.522,1.068-0.924
				c0.3-0.4,0.532-0.89,0.696-1.467c0.164-0.576,0.246-1.226,0.246-1.949c0-0.823-0.079-1.586-0.237-2.288
				c-0.158-0.702-0.396-1.309-0.715-1.821c-0.319-0.512-0.717-0.913-1.194-1.203c-0.477-0.29-1.035-0.435-1.673-0.435
				c-0.49,0-0.941,0.104-1.354,0.312c-0.413,0.208-0.769,0.509-1.068,0.902c-0.299,0.394-0.533,0.877-0.701,1.45
				c-0.167,0.573-0.251,1.225-0.251,1.955c0,0.816,0.083,1.578,0.247,2.282c0.165,0.706,0.406,1.318,0.725,1.838
				s0.717,0.928,1.194,1.225S78.596,17.729,79.228,17.729z"/>
			<path fill="#262626" d="M85.831,18.255c0.083-0.1,0.169-0.283,0.256-0.548c0.087-0.265,0.156-0.551,0.208-0.859
				c0.078-0.501,0.163-1.072,0.256-1.713c0.093-0.641,0.187-1.302,0.28-1.982c0.093-0.68,0.185-1.359,0.275-2.036
				s0.174-1.305,0.251-1.885c0.078-0.58,0.142-1.088,0.193-1.525c0.052-0.437,0.087-0.755,0.106-0.956h1.15l4.612,9.174l4.728-9.174
				h0.938l1.16,8.97c0.058,0.408,0.114,0.756,0.169,1.042c0.055,0.287,0.108,0.528,0.16,0.725c0.051,0.197,0.103,0.357,0.155,0.479
				c0.051,0.122,0.097,0.219,0.135,0.29v0.043h-2.378v-0.043c0.02-0.057,0.043-0.154,0.072-0.29
				c0.029-0.136,0.044-0.297,0.044-0.483c0-0.122-0.008-0.297-0.024-0.526c-0.016-0.229-0.041-0.455-0.072-0.677l-0.832-6.585
				l-4.399,8.583l-0.687-0.107l-4.322-8.54c-0.161,1.203-0.303,2.317-0.425,3.341c-0.052,0.437-0.103,0.874-0.155,1.311
				c-0.051,0.437-0.097,0.847-0.135,1.229c-0.039,0.384-0.071,0.723-0.097,1.016c-0.026,0.294-0.039,0.512-0.039,0.655
				c0,0.179,0.003,0.335,0.01,0.468c0.006,0.133,0.016,0.249,0.029,0.349c0.013,0.115,0.026,0.215,0.039,0.301h-1.663V18.255z"/>
			<path fill="#262626" d="M104.886,13.872c0,0.645,0.006,1.207,0.02,1.687c0.013,0.48,0.03,0.894,0.053,1.24
				c0.022,0.348,0.05,0.64,0.082,0.876s0.071,0.43,0.116,0.58v0.043h-2.233v-0.043c0.045-0.15,0.085-0.344,0.121-0.58
				c0.036-0.236,0.064-0.528,0.087-0.876c0.022-0.347,0.04-0.76,0.053-1.24c0.013-0.479,0.02-1.042,0.02-1.687v-2.707
				c0-0.645-0.006-1.205-0.02-1.681c-0.013-0.476-0.03-0.888-0.053-1.235c-0.023-0.347-0.052-0.639-0.087-0.875
				c-0.035-0.236-0.076-0.43-0.121-0.58V6.75c0.419,0,0.852,0,1.3,0c0.448,0,0.889-0.001,1.324-0.005
				c0.435-0.003,0.851-0.009,1.248-0.016c0.396-0.007,0.754-0.016,1.073-0.027c0.319-0.011,0.591-0.021,0.817-0.032
				c0.225-0.011,0.383-0.027,0.474-0.048l-0.396,1.16c-0.167-0.05-0.361-0.097-0.58-0.14c-0.187-0.036-0.42-0.07-0.701-0.102
				c-0.281-0.032-0.598-0.048-0.953-0.048c-0.129,0-0.285,0.005-0.469,0.016s-0.363,0.023-0.537,0.038
				c-0.207,0.015-0.419,0.029-0.638,0.043v3.91c0.522-0.007,0.999-0.023,1.431-0.048c0.432-0.025,0.805-0.052,1.121-0.081
				c0.368-0.028,0.696-0.064,0.986-0.107l-0.213,1.289c-0.38-0.05-0.764-0.097-1.15-0.14c-0.329-0.036-0.688-0.068-1.078-0.097
				c-0.39-0.028-0.755-0.043-1.097-0.043V13.872z"/>
			<path fill="#262626" d="M110.175,12.486c0-0.845,0.144-1.629,0.43-2.353c0.287-0.723,0.678-1.352,1.175-1.885
				c0.496-0.533,1.083-0.951,1.76-1.251s1.402-0.451,2.175-0.451c0.76,0,1.478,0.142,2.151,0.424c0.673,0.283,1.26,0.686,1.76,1.208
				c0.499,0.523,0.894,1.157,1.184,1.901c0.29,0.745,0.435,1.579,0.435,2.503c0,0.767-0.123,1.506-0.367,2.218
				c-0.245,0.713-0.603,1.344-1.073,1.891c-0.471,0.549-1.051,0.985-1.74,1.312c-0.69,0.325-1.479,0.488-2.369,0.488
				c-0.754,0-1.466-0.14-2.137-0.419s-1.257-0.678-1.759-1.197c-0.503-0.52-0.899-1.15-1.189-1.891
				C110.32,14.242,110.175,13.41,110.175,12.486z M115.937,17.729c0.49,0,0.941-0.107,1.354-0.322s0.769-0.522,1.068-0.924
				c0.3-0.4,0.532-0.89,0.696-1.467c0.164-0.576,0.246-1.226,0.246-1.949c0-0.823-0.079-1.586-0.237-2.288
				c-0.158-0.702-0.396-1.309-0.715-1.821c-0.319-0.512-0.717-0.913-1.194-1.203c-0.477-0.29-1.035-0.435-1.673-0.435
				c-0.49,0-0.941,0.104-1.354,0.312c-0.413,0.208-0.769,0.509-1.068,0.902c-0.299,0.394-0.533,0.877-0.701,1.45
				c-0.167,0.573-0.251,1.225-0.251,1.955c0,0.816,0.083,1.578,0.247,2.282c0.165,0.706,0.406,1.318,0.725,1.838
				s0.717,0.928,1.194,1.225S115.305,17.729,115.937,17.729z"/>
			<path fill="#262626" d="M126.659,13.389c-0.129,0.021-0.256,0.034-0.382,0.038c-0.125,0.004-0.253,0.005-0.382,0.005
				c-0.103,0-0.216-0.003-0.338-0.011c-0.123-0.007-0.248-0.018-0.377-0.032v0.526c0,0.638,0.006,1.194,0.02,1.671
				c0.013,0.477,0.03,0.886,0.053,1.229c0.022,0.344,0.05,0.632,0.082,0.864c0.032,0.233,0.071,0.425,0.116,0.575v0.043h-2.233
				v-0.043c0.045-0.15,0.085-0.344,0.121-0.58c0.036-0.236,0.064-0.528,0.087-0.876c0.022-0.347,0.04-0.76,0.053-1.24
				c0.013-0.479,0.02-1.042,0.02-1.687v-2.707c0-0.645-0.006-1.205-0.02-1.681c-0.013-0.476-0.03-0.888-0.053-1.235
				c-0.023-0.347-0.052-0.639-0.087-0.875c-0.035-0.236-0.076-0.43-0.121-0.58V6.75c0.103,0.007,0.212,0.015,0.329,0.021
				c0.097,0.007,0.205,0.013,0.324,0.016c0.119,0.004,0.24,0.005,0.363,0.005c0.206,0,0.512-0.021,0.918-0.064
				c0.406-0.043,0.883-0.064,1.431-0.064c0.554,0,1.059,0.075,1.513,0.226c0.454,0.15,0.844,0.365,1.17,0.645
				c0.325,0.279,0.577,0.62,0.754,1.021c0.177,0.401,0.266,0.849,0.266,1.343c0,0.387-0.048,0.74-0.145,1.058
				c-0.097,0.319-0.232,0.605-0.406,0.859c-0.174,0.254-0.38,0.478-0.619,0.671c-0.239,0.193-0.503,0.362-0.793,0.505l2.021,3.169
				c0.174,0.258,0.35,0.505,0.527,0.741c0.177,0.236,0.346,0.448,0.507,0.634c0.161,0.187,0.313,0.343,0.455,0.468
				c0.142,0.125,0.261,0.209,0.357,0.252v0.043h-2.533c0-0.064-0.041-0.178-0.121-0.338c-0.081-0.161-0.174-0.329-0.28-0.505
				s-0.213-0.346-0.319-0.511c-0.106-0.165-0.185-0.286-0.237-0.365L126.659,13.389z M125.18,12.69
				c0.129,0.021,0.259,0.038,0.392,0.048c0.132,0.011,0.259,0.016,0.382,0.016c0.806,0,1.417-0.24,1.832-0.72
				c0.416-0.479,0.624-1.199,0.624-2.159c0-0.788-0.166-1.411-0.498-1.869c-0.332-0.458-0.82-0.688-1.465-0.688
				c-0.207,0-0.388,0.009-0.546,0.027c-0.158,0.018-0.292,0.038-0.401,0.059c-0.123,0.029-0.229,0.058-0.319,0.086V12.69z"/>
			<path fill="#262626" d="M135.467,7.545c-0.587,0-1.12,0.029-1.6,0.086c-0.48,0.058-0.895,0.118-1.242,0.183
				c-0.4,0.079-0.761,0.165-1.083,0.258l0.193-1.386c0.097,0.015,0.254,0.025,0.474,0.032c0.219,0.007,0.45,0.013,0.691,0.016
				c0.242,0.004,0.47,0.007,0.687,0.011c0.216,0.004,0.366,0.005,0.449,0.005h4.573c0.077,0,0.221-0.001,0.43-0.005
				c0.209-0.003,0.433-0.007,0.672-0.011c0.238-0.003,0.467-0.009,0.687-0.016c0.219-0.007,0.377-0.018,0.474-0.032l0.193,1.386
				c-0.31-0.093-0.664-0.179-1.063-0.258c-0.342-0.064-0.752-0.125-1.233-0.183c-0.48-0.057-1.02-0.086-1.619-0.086v6.327
				c0,0.645,0.006,1.207,0.02,1.687c0.013,0.48,0.03,0.894,0.053,1.24c0.023,0.348,0.05,0.64,0.083,0.876s0.071,0.43,0.116,0.58
				v0.043h-2.233v-0.043c0.045-0.15,0.083-0.344,0.116-0.58s0.061-0.528,0.087-0.876c0.026-0.347,0.045-0.76,0.058-1.24
				c0.013-0.479,0.02-1.042,0.02-1.687V7.545z"/>
			<path fill="#262626" d="M141.586,12.486c0-0.845,0.144-1.629,0.43-2.353c0.287-0.723,0.678-1.352,1.175-1.885
				c0.496-0.533,1.083-0.951,1.76-1.251s1.402-0.451,2.175-0.451c0.76,0,1.478,0.142,2.151,0.424
				c0.673,0.283,1.261,0.686,1.76,1.208c0.499,0.523,0.894,1.157,1.185,1.901c0.289,0.745,0.435,1.579,0.435,2.503
				c0,0.767-0.122,1.506-0.367,2.218c-0.245,0.713-0.603,1.344-1.073,1.891c-0.471,0.549-1.051,0.985-1.74,1.312
				c-0.689,0.325-1.479,0.488-2.369,0.488c-0.754,0-1.466-0.14-2.137-0.419s-1.257-0.678-1.759-1.197
				c-0.503-0.52-0.899-1.15-1.189-1.891C141.731,14.242,141.586,13.41,141.586,12.486z M147.349,17.729
				c0.49,0,0.941-0.107,1.354-0.322c0.412-0.215,0.769-0.522,1.068-0.924c0.3-0.4,0.531-0.89,0.696-1.467
				c0.164-0.576,0.246-1.226,0.246-1.949c0-0.823-0.079-1.586-0.237-2.288c-0.157-0.702-0.396-1.309-0.715-1.821
				c-0.318-0.512-0.717-0.913-1.193-1.203c-0.478-0.29-1.035-0.435-1.673-0.435c-0.49,0-0.941,0.104-1.354,0.312
				c-0.413,0.208-0.769,0.509-1.068,0.902c-0.299,0.394-0.533,0.877-0.701,1.45c-0.167,0.573-0.251,1.225-0.251,1.955
				c0,0.816,0.083,1.578,0.247,2.282c0.165,0.706,0.406,1.318,0.725,1.838s0.717,0.928,1.194,1.225S146.717,17.729,147.349,17.729z"
				/>
			<path fill="#262626" d="M161.638,7.781l2.697,7.616l2.272-6.316c0.058-0.136,0.116-0.288,0.174-0.457
				c0.058-0.168,0.111-0.34,0.159-0.516c0.049-0.175,0.088-0.344,0.117-0.505c0.028-0.161,0.043-0.306,0.043-0.435
				c0-0.093-0.007-0.173-0.02-0.242c-0.013-0.068-0.025-0.113-0.039-0.134V6.75h1.809v0.043c-0.129,0.144-0.281,0.378-0.455,0.704
				c-0.174,0.326-0.38,0.804-0.618,1.434l-3.606,9.518h-0.531l-2.611-7.101l-2.658,7.101h-0.551l-3.326-8.97
				c-0.122-0.329-0.253-0.646-0.391-0.951c-0.139-0.304-0.271-0.576-0.396-0.816c-0.127-0.24-0.236-0.44-0.329-0.602
				s-0.156-0.267-0.188-0.317V6.75h2.648v0.043c-0.013,0.036-0.022,0.093-0.029,0.172c-0.006,0.079-0.009,0.147-0.009,0.204
				c0,0.229,0.032,0.485,0.097,0.768c0.064,0.283,0.17,0.636,0.318,1.058l2.32,6.445l2.727-7.659H161.638z"/>
			<path fill="#262626" d="M171.876,6.745c0.664-0.003,1.279-0.011,1.848-0.021c0.566-0.011,1.055-0.023,1.465-0.038
				c0.408-0.014,0.678-0.036,0.807-0.064l-0.377,1.16c-0.174-0.05-0.371-0.097-0.59-0.14c-0.193-0.036-0.428-0.07-0.701-0.102
				s-0.592-0.048-0.953-0.048c-0.129,0-0.277,0.005-0.443,0.016c-0.168,0.011-0.33,0.023-0.484,0.038
				c-0.18,0.015-0.363,0.029-0.551,0.043v4.243c0.521-0.007,0.992-0.021,1.412-0.043c0.418-0.021,0.775-0.05,1.072-0.086
				c0.348-0.028,0.654-0.068,0.918-0.118l-0.23,1.278c-0.355-0.05-0.713-0.093-1.074-0.129c-0.309-0.036-0.65-0.066-1.023-0.091
				c-0.375-0.025-0.732-0.038-1.074-0.038v4.877c0.6,0,1.15-0.026,1.654-0.081c0.502-0.053,0.939-0.112,1.314-0.177
				c0.438-0.079,0.834-0.168,1.189-0.269l-0.223,1.407c-0.098-0.007-0.254-0.016-0.469-0.027c-0.217-0.01-0.441-0.018-0.678-0.021
				c-0.234-0.003-0.455-0.007-0.662-0.01c-0.207-0.004-0.348-0.006-0.426-0.006h-3.664v-0.043c0.045-0.15,0.086-0.344,0.121-0.58
				s0.064-0.528,0.088-0.876c0.021-0.347,0.039-0.76,0.053-1.24c0.012-0.479,0.02-1.042,0.02-1.687v-2.707
				c0-0.645-0.008-1.205-0.02-1.681c-0.014-0.476-0.031-0.888-0.053-1.235c-0.023-0.347-0.053-0.639-0.088-0.875
				s-0.076-0.43-0.121-0.58V6.75C170.565,6.75,171.212,6.749,171.876,6.745z"/>
			<path fill="#262626" d="M184.261,18.255c0.039-0.15,0.076-0.336,0.111-0.559c0.035-0.222,0.066-0.497,0.092-0.827
				c0.025-0.329,0.045-0.721,0.059-1.176c0.012-0.455,0.02-0.986,0.02-1.596V7.104c0-0.608-0.008-1.14-0.02-1.595
				c-0.014-0.455-0.033-0.849-0.059-1.182s-0.057-0.61-0.092-0.833c-0.035-0.222-0.072-0.408-0.111-0.559V2.894h2.32v0.043
				c-0.039,0.15-0.076,0.337-0.111,0.559c-0.035,0.222-0.064,0.5-0.086,0.833c-0.023,0.333-0.043,0.727-0.059,1.182
				c-0.016,0.455-0.023,0.987-0.023,1.595V9.5l5.645-5.124c0.633-0.573,0.947-1.067,0.947-1.482h2.717v0.043
				c-0.379,0.101-0.766,0.292-1.154,0.575c-0.391,0.283-0.805,0.628-1.242,1.037l-4.988,4.641l6.004,7.326
				c0.25,0.286,0.465,0.524,0.643,0.714c0.176,0.19,0.332,0.348,0.469,0.473c0.135,0.126,0.26,0.229,0.371,0.312
				c0.113,0.083,0.23,0.164,0.354,0.242v0.043h-2.832c-0.027-0.064-0.07-0.146-0.131-0.247c-0.063-0.101-0.133-0.204-0.213-0.312
				s-0.168-0.218-0.262-0.333c-0.094-0.114-0.182-0.222-0.266-0.322l-6.061-7.391v4.404c0,0.609,0.008,1.141,0.023,1.596
				s0.035,0.847,0.059,1.176c0.021,0.33,0.051,0.605,0.086,0.827c0.035,0.223,0.072,0.408,0.111,0.559v0.043h-2.32V18.255z"/>
			<path fill="#262626" d="M196.192,12.486c0-0.845,0.143-1.629,0.43-2.353c0.287-0.723,0.678-1.352,1.174-1.885
				c0.496-0.533,1.084-0.951,1.76-1.251c0.678-0.301,1.402-0.451,2.176-0.451c0.76,0,1.477,0.142,2.15,0.424
				c0.674,0.283,1.26,0.686,1.76,1.208c0.5,0.523,0.895,1.157,1.186,1.901c0.289,0.745,0.434,1.579,0.434,2.503
				c0,0.767-0.121,1.506-0.367,2.218c-0.244,0.713-0.602,1.344-1.072,1.891c-0.471,0.549-1.051,0.985-1.74,1.312
				c-0.689,0.325-1.48,0.488-2.369,0.488c-0.754,0-1.467-0.14-2.137-0.419s-1.256-0.678-1.76-1.197
				c-0.502-0.52-0.898-1.15-1.189-1.891C196.337,14.242,196.192,13.41,196.192,12.486z M201.954,17.729
				c0.488,0,0.941-0.107,1.354-0.322s0.768-0.522,1.068-0.924c0.299-0.4,0.531-0.89,0.695-1.467
				c0.164-0.576,0.246-1.226,0.246-1.949c0-0.823-0.078-1.586-0.236-2.288c-0.158-0.702-0.396-1.309-0.715-1.821
				c-0.32-0.512-0.717-0.913-1.195-1.203c-0.477-0.29-1.033-0.435-1.672-0.435c-0.49,0-0.941,0.104-1.354,0.312
				c-0.412,0.208-0.768,0.509-1.068,0.902c-0.299,0.394-0.533,0.877-0.701,1.45c-0.168,0.573-0.25,1.225-0.25,1.955
				c0,0.816,0.082,1.578,0.246,2.282c0.164,0.706,0.406,1.318,0.725,1.838s0.717,0.928,1.193,1.225
				C200.769,17.58,201.321,17.729,201.954,17.729z"/>
			<path fill="#262626" d="M213.942,8.995h-0.193c-0.039-0.122-0.102-0.275-0.189-0.462c-0.086-0.186-0.203-0.369-0.348-0.548
				c-0.145-0.179-0.324-0.331-0.537-0.457c-0.211-0.125-0.467-0.188-0.764-0.188c-0.225,0-0.426,0.042-0.604,0.124
				c-0.178,0.083-0.328,0.195-0.449,0.338c-0.123,0.144-0.217,0.313-0.281,0.51c-0.064,0.197-0.096,0.41-0.096,0.639
				c0,0.373,0.102,0.727,0.305,1.063c0.203,0.337,0.455,0.671,0.758,1.004s0.633,0.668,0.986,1.004
				c0.355,0.337,0.684,0.688,0.986,1.053s0.557,0.752,0.76,1.16s0.305,0.845,0.305,1.311c0,0.344-0.057,0.698-0.17,1.063
				s-0.295,0.695-0.547,0.988c-0.25,0.294-0.574,0.536-0.967,0.726s-0.869,0.284-1.43,0.284c-0.311,0-0.605-0.028-0.885-0.086
				c-0.281-0.058-0.539-0.127-0.773-0.21c-0.236-0.082-0.445-0.172-0.629-0.268c-0.184-0.098-0.338-0.188-0.459-0.274l0.174-2.03
				h0.203c0.064,0.251,0.16,0.501,0.285,0.752s0.279,0.478,0.465,0.683c0.184,0.203,0.398,0.369,0.646,0.494
				s0.533,0.188,0.855,0.188c0.227,0,0.439-0.041,0.639-0.123s0.373-0.199,0.518-0.35s0.26-0.334,0.344-0.553
				c0.082-0.219,0.125-0.464,0.125-0.736c0-0.322-0.059-0.621-0.174-0.896c-0.117-0.275-0.271-0.541-0.465-0.795
				s-0.41-0.5-0.652-0.736s-0.492-0.476-0.75-0.72c-0.258-0.243-0.506-0.492-0.748-0.747c-0.242-0.254-0.459-0.528-0.652-0.822
				c-0.193-0.293-0.35-0.607-0.465-0.94s-0.174-0.7-0.174-1.101c0-0.422,0.08-0.802,0.242-1.139c0.16-0.336,0.373-0.621,0.637-0.854
				c0.266-0.232,0.568-0.412,0.91-0.537c0.342-0.125,0.695-0.188,1.063-0.188c0.271,0,0.523,0.021,0.76,0.064
				c0.234,0.043,0.447,0.095,0.637,0.156c0.191,0.061,0.357,0.122,0.498,0.183c0.143,0.061,0.258,0.109,0.35,0.145L213.942,8.995z
				 M213.854,3.753c-0.477,0.179-0.959,0.369-1.449,0.569c-0.213,0.086-0.436,0.179-0.668,0.279
				c-0.232,0.101-0.467,0.208-0.705,0.322c-0.238,0.115-0.479,0.231-0.721,0.349s-0.473,0.242-0.691,0.371l-0.213-0.397
				c0.42-0.308,0.836-0.645,1.252-1.01s0.799-0.709,1.146-1.031c0.398-0.372,0.785-0.748,1.16-1.128L213.854,3.753z"/>
			<path fill="#262626" d="M225.331,15.902l-0.754,1.998c-0.188,0.093-0.398,0.177-0.633,0.253c-0.236,0.074-0.479,0.138-0.73,0.188
				s-0.508,0.088-0.77,0.113c-0.26,0.024-0.506,0.037-0.738,0.037c-0.813,0-1.564-0.133-2.258-0.397s-1.291-0.653-1.793-1.166
				c-0.504-0.512-0.896-1.14-1.18-1.885c-0.283-0.744-0.426-1.597-0.426-2.557c0-0.845,0.148-1.629,0.445-2.353
				c0.295-0.723,0.705-1.352,1.227-1.885c0.523-0.533,1.141-0.951,1.852-1.251c0.713-0.301,1.484-0.451,2.316-0.451
				c0.188,0,0.385,0.009,0.594,0.027c0.209,0.018,0.418,0.045,0.625,0.081c0.205,0.036,0.404,0.077,0.598,0.124
				c0.193,0.047,0.375,0.095,0.543,0.145l0.725,1.934l-0.115,0.075c-0.176-0.236-0.383-0.455-0.625-0.655
				c-0.242-0.2-0.506-0.371-0.793-0.51s-0.588-0.249-0.904-0.328c-0.314-0.079-0.637-0.118-0.967-0.118
				c-0.533,0-1.021,0.104-1.463,0.312c-0.443,0.208-0.82,0.51-1.133,0.908s-0.555,0.883-0.729,1.456
				c-0.174,0.573-0.262,1.221-0.262,1.944c0,0.816,0.084,1.578,0.252,2.282c0.168,0.706,0.418,1.318,0.754,1.838
				c0.334,0.52,0.754,0.928,1.256,1.225c0.504,0.297,1.09,0.445,1.76,0.445c0.322,0,0.641-0.045,0.953-0.135
				c0.313-0.089,0.609-0.216,0.889-0.381c0.281-0.164,0.537-0.363,0.77-0.596s0.432-0.492,0.6-0.779L225.331,15.902z"/>
			<path fill="#262626" d="M227.255,11.165c0-0.645-0.006-1.205-0.02-1.681c-0.012-0.476-0.029-0.888-0.053-1.235
				c-0.021-0.347-0.051-0.639-0.086-0.875c-0.037-0.236-0.076-0.43-0.121-0.58V6.75h2.242v0.043c-0.045,0.15-0.086,0.344-0.121,0.58
				s-0.064,0.528-0.086,0.875c-0.023,0.348-0.041,0.759-0.053,1.235c-0.014,0.477-0.02,1.037-0.02,1.681v2.707
				c0,0.645,0.006,1.207,0.02,1.687c0.012,0.48,0.029,0.894,0.053,1.24c0.021,0.348,0.051,0.64,0.086,0.876s0.076,0.43,0.121,0.58
				v0.043h-2.242v-0.043c0.045-0.15,0.084-0.344,0.121-0.58c0.035-0.236,0.064-0.528,0.086-0.876c0.023-0.347,0.041-0.76,0.053-1.24
				c0.014-0.479,0.02-1.042,0.02-1.687V11.165z"/>
			<path fill="#262626" d="M233.849,6.745c0.664-0.003,1.279-0.011,1.848-0.021c0.566-0.011,1.055-0.023,1.465-0.038
				c0.408-0.014,0.678-0.036,0.807-0.064l-0.377,1.16c-0.174-0.05-0.371-0.097-0.59-0.14c-0.193-0.036-0.428-0.07-0.701-0.102
				s-0.592-0.048-0.953-0.048c-0.129,0-0.277,0.005-0.443,0.016c-0.168,0.011-0.33,0.023-0.484,0.038
				c-0.18,0.015-0.363,0.029-0.551,0.043v4.243c0.521-0.007,0.992-0.021,1.412-0.043c0.418-0.021,0.775-0.05,1.072-0.086
				c0.348-0.028,0.654-0.068,0.918-0.118l-0.23,1.278c-0.355-0.05-0.713-0.093-1.074-0.129c-0.309-0.036-0.65-0.066-1.023-0.091
				c-0.375-0.025-0.732-0.038-1.074-0.038v4.877c0.6,0,1.15-0.026,1.654-0.081c0.502-0.053,0.939-0.112,1.314-0.177
				c0.438-0.079,0.834-0.168,1.189-0.269l-0.223,1.407c-0.098-0.007-0.254-0.016-0.469-0.027c-0.217-0.01-0.441-0.018-0.678-0.021
				c-0.234-0.003-0.455-0.007-0.662-0.01c-0.207-0.004-0.348-0.006-0.426-0.006h-3.664v-0.043c0.045-0.15,0.086-0.344,0.121-0.58
				s0.064-0.528,0.088-0.876c0.021-0.347,0.039-0.76,0.053-1.24c0.012-0.479,0.02-1.042,0.02-1.687v-2.707
				c0-0.645-0.008-1.205-0.02-1.681c-0.014-0.476-0.031-0.888-0.053-1.235c-0.023-0.347-0.053-0.639-0.088-0.875
				s-0.076-0.43-0.121-0.58V6.75C232.538,6.75,233.185,6.749,233.849,6.745z"/>
			<path fill="#262626" d="M242.144,17.46c0.6,0,1.152-0.026,1.658-0.081c0.506-0.053,0.949-0.112,1.33-0.177
				c0.443-0.079,0.846-0.168,1.207-0.269l-0.223,1.429c-0.09-0.007-0.242-0.016-0.459-0.027c-0.215-0.01-0.443-0.018-0.682-0.021
				c-0.238-0.003-0.461-0.007-0.666-0.01c-0.207-0.004-0.348-0.006-0.426-0.006h-3.703v-0.043c0.045-0.15,0.086-0.344,0.121-0.58
				s0.064-0.528,0.088-0.876c0.021-0.347,0.039-0.76,0.053-1.24c0.012-0.479,0.02-1.042,0.02-1.687v-2.707
				c0-0.645-0.008-1.205-0.02-1.681c-0.014-0.476-0.031-0.888-0.053-1.235c-0.023-0.347-0.053-0.639-0.088-0.875
				s-0.076-0.43-0.121-0.58V6.75h2.234v0.043c-0.045,0.15-0.084,0.344-0.117,0.58c-0.031,0.236-0.059,0.528-0.082,0.875
				c-0.021,0.348-0.039,0.759-0.053,1.235c-0.014,0.477-0.02,1.037-0.02,1.681V17.46z"/>
			<path fill="#262626" d="M248.36,11.165c0-0.645-0.006-1.205-0.02-1.681c-0.014-0.476-0.031-0.888-0.053-1.235
				c-0.023-0.347-0.053-0.639-0.088-0.875s-0.076-0.43-0.121-0.58V6.75h2.244v0.043c-0.045,0.15-0.086,0.344-0.121,0.58
				s-0.064,0.528-0.088,0.875c-0.021,0.348-0.039,0.759-0.053,1.235c-0.014,0.477-0.02,1.037-0.02,1.681v2.707
				c0,0.645,0.006,1.207,0.02,1.687c0.014,0.48,0.031,0.894,0.053,1.24c0.023,0.348,0.053,0.64,0.088,0.876s0.076,0.43,0.121,0.58
				v0.043h-2.244v-0.043c0.045-0.15,0.086-0.344,0.121-0.58s0.064-0.528,0.088-0.876c0.021-0.347,0.039-0.76,0.053-1.24
				c0.014-0.479,0.02-1.042,0.02-1.687V11.165z"/>
			<path fill="#262626" d="M257.718,8.995h-0.193c-0.037-0.122-0.102-0.275-0.188-0.462c-0.088-0.186-0.203-0.369-0.348-0.548
				c-0.146-0.179-0.324-0.331-0.537-0.457c-0.213-0.125-0.467-0.188-0.764-0.188c-0.227,0-0.428,0.042-0.605,0.124
				c-0.176,0.083-0.326,0.195-0.449,0.338c-0.121,0.144-0.215,0.313-0.279,0.51c-0.064,0.197-0.098,0.41-0.098,0.639
				c0,0.373,0.102,0.727,0.305,1.063c0.203,0.337,0.457,0.671,0.76,1.004s0.631,0.668,0.986,1.004
				c0.354,0.337,0.682,0.688,0.986,1.053c0.303,0.365,0.555,0.752,0.758,1.16s0.305,0.845,0.305,1.311
				c0,0.344-0.057,0.698-0.17,1.063c-0.111,0.365-0.295,0.695-0.545,0.988c-0.252,0.294-0.574,0.536-0.967,0.726
				c-0.395,0.189-0.871,0.284-1.432,0.284c-0.309,0-0.604-0.028-0.885-0.086c-0.279-0.058-0.537-0.127-0.773-0.21
				c-0.234-0.082-0.443-0.172-0.629-0.268c-0.184-0.098-0.336-0.188-0.459-0.274l0.174-2.03h0.203
				c0.064,0.251,0.16,0.501,0.285,0.752c0.127,0.251,0.281,0.478,0.465,0.683c0.184,0.203,0.4,0.369,0.648,0.494
				s0.533,0.188,0.855,0.188c0.225,0,0.438-0.041,0.637-0.123c0.201-0.082,0.373-0.199,0.518-0.35
				c0.146-0.15,0.26-0.334,0.344-0.553s0.125-0.464,0.125-0.736c0-0.322-0.057-0.621-0.174-0.896
				c-0.115-0.275-0.27-0.541-0.463-0.795s-0.412-0.5-0.652-0.736c-0.242-0.236-0.492-0.476-0.75-0.72
				c-0.258-0.243-0.508-0.492-0.75-0.747c-0.24-0.254-0.459-0.528-0.652-0.822c-0.193-0.293-0.348-0.607-0.463-0.94
				c-0.117-0.333-0.176-0.7-0.176-1.101c0-0.422,0.082-0.802,0.242-1.139c0.162-0.336,0.375-0.621,0.639-0.854
				c0.264-0.232,0.566-0.412,0.908-0.537c0.342-0.125,0.697-0.188,1.064-0.188c0.27,0,0.523,0.021,0.758,0.064
				c0.236,0.043,0.449,0.095,0.639,0.156c0.189,0.061,0.355,0.122,0.498,0.183c0.141,0.061,0.258,0.109,0.348,0.145L257.718,8.995z"
				/>
			<path fill="#262626" d="M260.657,11.165c0-0.645-0.006-1.205-0.02-1.681c-0.012-0.476-0.029-0.888-0.053-1.235
				c-0.021-0.347-0.051-0.639-0.086-0.875c-0.037-0.236-0.076-0.43-0.121-0.58V6.75h2.232v0.043c-0.045,0.15-0.084,0.344-0.115,0.58
				c-0.033,0.236-0.061,0.528-0.082,0.875c-0.023,0.348-0.041,0.759-0.055,1.235c-0.012,0.477-0.018,1.037-0.018,1.681v0.709
				l4.418-4.028c0.244-0.222,0.43-0.419,0.555-0.591c0.127-0.172,0.189-0.34,0.189-0.505h2.301v0.043
				c-0.291,0.079-0.588,0.222-0.895,0.43c-0.307,0.208-0.631,0.469-0.971,0.784l-3.857,3.513l4.021,4.641
				c0.535,0.623,0.986,1.098,1.357,1.424c0.371,0.325,0.656,0.55,0.855,0.671v0.043h-2.629c-0.07-0.143-0.223-0.354-0.455-0.634
				s-0.537-0.641-0.918-1.085l-3.973-4.598v1.891c0,0.645,0.006,1.207,0.018,1.687c0.014,0.48,0.031,0.894,0.055,1.24
				c0.021,0.348,0.049,0.64,0.082,0.876c0.031,0.236,0.07,0.43,0.115,0.58v0.043h-2.232v-0.043c0.045-0.15,0.084-0.344,0.121-0.58
				c0.035-0.236,0.064-0.528,0.086-0.876c0.023-0.347,0.041-0.76,0.053-1.24c0.014-0.479,0.02-1.042,0.02-1.687V11.165z"/>
			<path fill="#262626" d="M270.442,12.486c0-0.845,0.143-1.629,0.43-2.353c0.287-0.723,0.678-1.352,1.174-1.885
				c0.496-0.533,1.084-0.951,1.76-1.251c0.678-0.301,1.402-0.451,2.176-0.451c0.76,0,1.477,0.142,2.15,0.424
				c0.674,0.283,1.26,0.686,1.76,1.208c0.5,0.523,0.895,1.157,1.186,1.901c0.289,0.745,0.434,1.579,0.434,2.503
				c0,0.767-0.121,1.506-0.367,2.218c-0.244,0.713-0.602,1.344-1.072,1.891c-0.471,0.549-1.051,0.985-1.74,1.312
				c-0.689,0.325-1.48,0.488-2.369,0.488c-0.754,0-1.467-0.14-2.137-0.419s-1.256-0.678-1.76-1.197
				c-0.502-0.52-0.898-1.15-1.189-1.891C270.587,14.242,270.442,13.41,270.442,12.486z M276.204,17.729
				c0.488,0,0.941-0.107,1.354-0.322s0.768-0.522,1.068-0.924c0.299-0.4,0.531-0.89,0.695-1.467
				c0.164-0.576,0.246-1.226,0.246-1.949c0-0.823-0.078-1.586-0.236-2.288c-0.158-0.702-0.396-1.309-0.715-1.821
				c-0.32-0.512-0.717-0.913-1.195-1.203c-0.477-0.29-1.033-0.435-1.672-0.435c-0.49,0-0.941,0.104-1.354,0.312
				c-0.412,0.208-0.768,0.509-1.068,0.902c-0.299,0.394-0.533,0.877-0.701,1.45c-0.168,0.573-0.25,1.225-0.25,1.955
				c0,0.816,0.082,1.578,0.246,2.282c0.164,0.706,0.406,1.318,0.725,1.838s0.717,0.928,1.193,1.225
				C275.019,17.58,275.571,17.729,276.204,17.729z"/>
		</g>
		<g>
			<path fill="#57AD57" d="M40.623,2.747l-4.059,3.849l-5.399-5.82l-9.584,9.248L17.569,5.73L0.812,21.869l16.535-11.03l2.169,1.154
				l1.69,0.909l5.69,3.042l-9.329,8.957l21.269-14.215l0.956-0.629l0.479-0.338l13.597,7.276L40.623,2.747z M26.979,15.9
				l-3.895-4.256l7.813-5.189l3.778,2.018L26.979,15.9z"/>
		</g>
	</g>
</g>
</svg>
