<?xml version="1.0" encoding="utf-8"?>
<!-- Generator: Adobe Illustrator 16.0.0, SVG Export Plug-In . SVG Version: 6.00 Build 0)  -->
<!DOCTYPE svg PUBLIC "-//W3C//DTD SVG 1.1//EN" "http://www.w3.org/Graphics/SVG/1.1/DTD/svg11.dtd">
<svg version="1.1" id="Layer_1" xmlns="http://www.w3.org/2000/svg" xmlns:xlink="http://www.w3.org/1999/xlink" x="0px" y="0px"
	 width="31px" height="30.334px" viewBox="0 0 31 30.334" enable-background="new 0 0 31 30.334" xml:space="preserve">
<polygon display="none" fill="none" stroke="#333333" stroke-miterlimit="10" points="6.716,4.105 6.716,23.291 17.311,27.968 
	18.265,27.014 18.265,8.639 "/>
<polyline display="none" fill="none" stroke="#333333" stroke-miterlimit="10" points="18.646,23.195 23.563,23.195 23.563,4.821 
	22.728,3.938 6.334,3.938 "/>
<line display="none" fill="none" stroke="#333333" stroke-miterlimit="10" x1="15.831" y1="15.464" x2="15.831" y2="18.805"/>
<polygon fill="none" stroke="#333333" stroke-linecap="round" stroke-linejoin="round" stroke-miterlimit="10" points="6.607,4.44 
	7.647,3.647 24.203,3.647 24.996,4.44 24.996,10.735 6.607,10.735 "/>
<polygon fill="none" stroke="#333333" stroke-linecap="round" stroke-linejoin="round" stroke-miterlimit="10" points="
	6.607,10.735 2.703,18.74 28.094,18.827 24.908,10.785 "/>
<polygon fill="#FFFFFF" stroke="#333333" stroke-linecap="round" stroke-linejoin="round" stroke-miterlimit="10" points="
	8.267,6.832 9.048,6.039 13.86,6.026 14.624,6.832 14.624,11.578 13.806,12.383 9.048,12.371 8.242,11.603 "/>
<polygon fill="#FFFFFF" stroke="#333333" stroke-linecap="round" stroke-linejoin="round" stroke-miterlimit="10" points="
	16.161,6.832 16.941,6.039 21.754,6.026 22.518,6.832 22.518,11.578 21.7,12.383 16.941,12.371 16.136,11.603 "/>
<rect x="2.715" y="18.691" fill="none" stroke="#333333" stroke-linejoin="round" stroke-miterlimit="10" width="25.378" height="5.588"/>
<line fill="none" stroke="#333333" stroke-linejoin="round" stroke-miterlimit="10" x1="27.293" y1="27.77" x2="27.293" y2="24.3"/>
<line fill="none" stroke="#333333" stroke-linejoin="round" stroke-miterlimit="10" x1="4.318" y1="27.77" x2="4.318" y2="24.3"/>
</svg>
