<?xml version="1.0" encoding="utf-8"?>
<!-- Generator: Adobe Illustrator 16.0.0, SVG Export Plug-In . SVG Version: 6.00 Build 0)  -->
<!DOCTYPE svg PUBLIC "-//W3C//DTD SVG 1.1//EN" "http://www.w3.org/Graphics/SVG/1.1/DTD/svg11.dtd">
<svg version="1.1" id="Layer_1" xmlns="http://www.w3.org/2000/svg" xmlns:xlink="http://www.w3.org/1999/xlink" x="0px" y="0px"
	 width="41.917px" height="41.917px" viewBox="-9 -9 41.917 41.917" enable-background="new -9 -9 41.917 41.917"
	 xml:space="preserve">
<path fill="none" d="M-9-9h42v42H-9V-9z"/>
<path fill="#00e676" d="M10.25,20.75h3.5v-10.5h-3.5V20.75z M12-5.5C2.34-5.5-5.5,2.34-5.5,12c0,9.659,7.84,17.5,17.5,17.5
	c9.659,0,17.5-7.841,17.5-17.5C29.5,2.34,21.659-5.5,12-5.5z M12,26C4.282,26-2,19.717-2,12C-2,4.282,4.282-2,12-2
	c7.717,0,14,6.282,14,14C26,19.717,19.717,26,12,26z M10.25,6.75h3.5v-3.5h-3.5V6.75z"/>
</svg>
